HIERARCHY
ROOT root
{
	OFFSET	0	13.1	24.9
	CHANNELS 6  Xposition Yposition Zposition Xrotation Yrotation Zrotation
	JOINT spine_1
	{
		OFFSET	0	9.99999	0
		CHANNELS 3  Xrotation Yrotation Zrotation
		JOINT spine_2
		{
			OFFSET	0	112	-10
			CHANNELS 3  Xrotation Yrotation Zrotation
			JOINT spine_3
			{
				OFFSET	0	206.5	19.3
				CHANNELS 3  Xrotation Yrotation Zrotation
				JOINT spine_4
				{
					OFFSET	0	110.4	14.6
					CHANNELS 3  Xrotation Yrotation Zrotation
					JOINT neck_1
					{
						OFFSET	0	71.8	-50.3
						CHANNELS 3  Xrotation Yrotation Zrotation
						JOINT neck_2
						{
							OFFSET	0	86.2	-25.8
							CHANNELS 3  Xrotation Yrotation Zrotation
							JOINT head_ee
							{
								OFFSET	0	179.8	-8.7
								CHANNELS 3  Xrotation Yrotation Zrotation
								End Site
								{
									OFFSET	1	0	0
								}
							}
						}
					}
					JOINT left_clavicle
					{
						OFFSET	-43.2	22.4	-70.8
						CHANNELS 3  Xrotation Yrotation Zrotation
						JOINT left_shoulder
						{
							OFFSET	-93.9	-5.79999	48.7
							CHANNELS 3  Xrotation Yrotation Zrotation
							JOINT left_elbow
							{
								OFFSET	-291.4	-30.8	15.2
								CHANNELS 3  Xrotation Yrotation Zrotation
								JOINT left_lowarm_twist
								{
									OFFSET	-110.7	-3.89999	13.6
									CHANNELS 3  Xrotation Yrotation Zrotation
									JOINT left_hand
									{
										OFFSET	-110.7	-3.89999	13.6
										CHANNELS 3  Xrotation Yrotation Zrotation
										JOINT left_ee
										{
											OFFSET	-80.8	-5.10001	12.1
											CHANNELS 3  Xrotation Yrotation Zrotation
											End Site
											{
												OFFSET	1	0	0
											}
										}
									}
								}
							}
						}
					}
					JOINT right_clavicle
					{
						OFFSET	43.2	22.4	-70.8
						CHANNELS 3  Xrotation Yrotation Zrotation
						JOINT right_shoulder
						{
							OFFSET	93.9	-5.79999	48.7
							CHANNELS 3  Xrotation Yrotation Zrotation
							JOINT right_elbow
							{
								OFFSET	291.4	-30.8	15.2
								CHANNELS 3  Xrotation Yrotation Zrotation
								JOINT right_lowarm_twist
								{
									OFFSET	110.7	-3.89999	13.6
									CHANNELS 3  Xrotation Yrotation Zrotation
									JOINT right_hand
									{
										OFFSET	110.7	-3.89999	13.6
										CHANNELS 3  Xrotation Yrotation Zrotation
										JOINT right_ee
										{
											OFFSET	80.8	-5.10001	12.1
											CHANNELS 3  Xrotation Yrotation Zrotation
											End Site
											{
												OFFSET	1	0	0
											}
										}
									}
								}
							}
						}
					}
				}
			}
		}
	}
	JOINT left_hip
	{
		OFFSET	-82.8	-127.5	0.300001
		CHANNELS 3  Xrotation Yrotation Zrotation
		JOINT left_knee
		{
			OFFSET	-28.2	-396.7	2.2
			CHANNELS 3  Xrotation Yrotation Zrotation
			JOINT left_ankle
			{
				OFFSET	-11.7	-411.3	35.4
				CHANNELS 3  Xrotation Yrotation Zrotation
				JOINT left_toes
				{
					OFFSET	0	-60	-88.6
					CHANNELS 3  Xrotation Yrotation Zrotation
					JOINT left_foot_ee
					{
						OFFSET	-22.5	-16.5	-42.2
						CHANNELS 3  Xrotation Yrotation Zrotation
						End Site
						{
							OFFSET	1	0	0
						}
					}
				}
			}
		}
	}
	JOINT right_hip
	{
		OFFSET	82.8	-127.5	0.300001
		CHANNELS 3  Xrotation Yrotation Zrotation
		JOINT right_knee
		{
			OFFSET	28.2	-396.7	2.2
			CHANNELS 3  Xrotation Yrotation Zrotation
			JOINT right_ankle
			{
				OFFSET	11.7	-411.3	35.4
				CHANNELS 3  Xrotation Yrotation Zrotation
				JOINT right_toes
				{
					OFFSET	0	-60	-88.6
					CHANNELS 3  Xrotation Yrotation Zrotation
					JOINT right_foot_ee
					{
						OFFSET	22.5	-16.5	-42.2
						CHANNELS 3  Xrotation Yrotation Zrotation
						End Site
						{
							OFFSET	1	0	0
						}
					}
				}
			}
		}
	}
}
MOTION
Frames: 11
Frame Time: 0.02
1238.6 689.021 -1363.25 29.6241 76.2927 -32.1153 -1.15742 0.301242 1.71804 -1.1558 0.191326 1.73372 -1.14859 -0.212116 1.7313 -1.15276 0.0639293 1.74307 -20.0702 15.8359 -10.4319 -21.9381 35.6984 -2.30698 -0.0 0.0 -0.0 -0.503904 16.8485 1.19377 17.7806 -37.4566 62.503 2.88598 -55.0172 1.50313 28.4677 0.111168 -3.59765 -1.70864 13.345 -5.23829 -0.0 0.0 -0.0 10.2242 4.59857 -20.2922 -30.9726 14.9931 -60.9061 0.480036 13.3764 -0.0562916 -2.02951 0.0759151 -0.248029 7.47996 26.3936 -39.3867 0.0 0.0 0.0 -30.264 14.0884 7.57599 -6.40166 0.210146 0.959482 33.3178 -10.2211 -4.40132 -38.5182 0.0 0.0 -0.0 0.0 -0.0 24.6842 8.85879 -3.87646 1.21673 0.0520128 0.179463 -3.06138 8.79527 -0.472493 -25.0651 0.0 0.0 0.0 0.0 0.0 
1215.06 682.587 -1367.57 30.2844 77.1257 -32.7189 -1.17429 0.304692 1.7311 -1.17264 0.193937 1.74698 -1.16528 -0.213129 1.74474 -1.16952 0.0650509 1.7565 -19.5314 15.8108 -10.8012 -21.3087 35.9246 -2.85218 -0.0 0.0 -0.0 -0.932234 16.9436 0.541396 16.3703 -38.1142 62.8465 2.92687 -55.3947 1.53671 28.521 0.109694 -3.6043 -1.62852 13.0212 -4.88592 -0.0 0.0 -0.0 10.2283 4.55913 -20.3001 -29.9737 15.1728 -60.6216 0.516317 14.3471 -0.064984 -1.44217 0.0530411 -0.176524 7.52016 26.573 -39.5477 0.0 0.0 0.0 -30.4316 14.2022 7.02284 -6.53734 0.213434 0.980044 33.5918 -10.1439 -4.42748 -38.5055 0.0 0.0 -0.0 0.0 -0.0 24.6991 8.86203 -3.60576 -0.28781 -0.0117439 -0.042606 -3.91495 10.5103 -0.611353 -25.0047 0.0 0.0 0.0 0.0 0.0 
1192.64 678.015 -1370.48 29.0973 77.3223 -31.8873 -1.18745 0.315297 1.73036 -1.18581 0.204568 1.74691 -1.17811 -0.203155 1.74708 -1.18236 0.0752685 1.75724 -18.8482 15.7807 -10.8605 -20.5078 36.0064 -3.16626 -0.0 0.0 -0.0 -1.04259 17.4165 0.437065 13.9026 -37.6462 62.7926 2.93341 -55.4543 1.54209 28.5078 0.11006 -3.60265 -1.58306 12.8455 -4.68131 -0.0 0.0 -0.0 10.442 4.80796 -20.7639 -28.9809 15.4451 -60.3241 0.545829 15.1305 -0.0724925 -1.05905 0.0385167 -0.129758 7.56814 26.8007 -39.7265 0.0 0.0 0.0 -30.4335 14.1256 6.72025 -6.61164 0.215214 0.991307 33.4863 -10.2975 -4.42015 -38.5865 0.0 0.0 -0.0 0.0 -0.0 24.4754 8.87549 -3.42309 -0.583787 -0.0235978 -0.0864806 -5.61803 11.6764 -0.886816 -25.027 0.0 0.0 0.0 0.0 0.0 
1173.16 675.149 -1374.19 29.863 77.8639 -33.1026 -1.26755 0.312037 1.79602 -1.26578 0.197138 1.81223 -1.25794 -0.227956 1.80862 -1.2625 0.0604927 1.82192 -17.3289 15.1794 -12.1549 -18.5879 35.7954 -5.23675 -0.0 0.0 -0.0 -1.19217 17.4057 0.205186 11.6506 -38.0451 62.8076 2.98766 -55.9427 1.58691 28.5156 0.109844 -3.60362 -1.38892 12.5902 -3.57406 -0.0 0.0 -0.0 10.5399 4.69153 -20.9715 -28.3655 15.6442 -60.2172 0.567806 15.7101 -0.0783361 -0.770344 0.0277787 -0.0944554 7.50752 26.2915 -39.6945 0.0 0.0 0.0 -30.4104 14.1867 6.46239 -6.67849 0.216803 1.00144 33.571 -11.2243 -4.44986 -38.5006 0.0 0.0 -0.0 0.0 -0.0 24.2605 8.87831 -3.30103 -1.31236 -0.0518079 -0.194732 -10.0426 12.1898 -1.60258 -25.9304 0.0 0.0 0.0 0.0 0.0 
1146.75 675.309 -1378.67 31.9775 77.2871 -35.147 -1.35142 0.324215 1.82625 -1.34959 0.207369 1.84318 -1.34121 -0.227845 1.84076 -1.34593 0.0656762 1.85364 -17.5377 15.591 -11.3509 -18.9335 36.1069 -4.19753 -0.0 0.0 -0.0 -1.98875 17.527 -1.00275 6.99785 -37.9837 62.3413 2.9223 -55.3529 1.53295 28.5749 0.108197 -3.61103 -1.36026 12.815 -3.29063 -0.0 0.0 -0.0 10.8774 5.6101 -21.7242 -26.3562 16.4489 -59.5705 0.61937 17.0571 -0.0928817 -0.368119 0.0131158 -0.0451826 7.55184 26.4349 -39.9208 0.0 0.0 0.0 -30.3822 14.1238 6.03068 -6.74322 0.21833 1.01126 33.5388 -10.4169 -4.42812 -38.7343 0.0 0.0 -0.0 0.0 -0.0 24.2021 8.88871 -3.21487 -6.35358 -0.208969 -0.952199 -8.27829 11.8652 -1.31463 -24.8159 0.0 0.0 0.0 0.0 0.0 
1122.94 676.968 -1385.18 34.9069 77.3879 -38.0939 -1.40999 0.297448 1.86778 -1.40807 0.178015 1.88292 -1.40044 -0.267607 1.87229 -1.40533 0.0313895 1.89105 -17.4285 15.5174 -11.4008 -18.7892 36.0103 -4.32119 -0.0 0.0 -0.0 -2.47081 17.2656 -1.79324 3.967 -38.0623 62.2081 2.86019 -54.7755 1.48203 28.6149 0.107083 -3.61601 -1.27896 14.0165 -2.2354 -0.0 0.0 -0.0 11.2911 5.76956 -22.6309 -24.6579 17.1638 -59.1531 0.673937 18.4616 -0.109527 -0.128005 0.00452793 -0.0157205 7.47127 26.218 -39.471 0.0 0.0 0.0 -30.5968 14.3439 5.02728 -9.52162 0.273401 1.43402 35.7274 -8.99493 -4.61403 -38.271 0.0 0.0 -0.0 0.0 -0.0 24.0218 8.83018 -3.39237 -10.1402 -0.282867 -1.52846 -5.73806 12.9157 -0.913494 -24.1065 0.0 0.0 0.0 0.0 0.0 
1099.33 676.705 -1394.47 33.7687 78.1495 -37.0849 -1.31893 0.320095 1.93169 -1.31688 0.196552 1.94814 -1.30833 -0.261727 1.94046 -1.31359 0.0479565 1.95744 -13.9699 16.2577 -11.0576 -14.8541 37.6557 -4.98626 -0.0 0.0 -0.0 -2.33105 17.8507 -1.47323 0.35545 -38.8002 60.2499 2.664 -52.8372 1.32368 28.7604 0.103002 -3.63415 -0.674976 15.4561 2.14096 -0.0 0.0 -0.0 11.2816 5.0838 -22.5894 -24.6862 17.3424 -59.5149 0.72455 19.7441 -0.126092 -0.117858 0.00416752 -0.0144748 7.6109 26.4575 -40.3719 0.0 0.0 0.0 -29.4156 14.2025 3.84914 -11.1396 0.296005 1.68125 36.9956 -8.85137 -4.73127 -37.545 0.0 0.0 -0.0 0.0 -0.0 23.4381 8.75263 -3.70127 -12.8335 -0.312178 -1.94064 0.108724 10.9483 0.01686 -21.252 0.0 0.0 0.0 0.0 0.0 
1076.2 676.954 -1395.43 38.9509 76.9945 -42.0594 -1.48629 0.413519 1.95271 -1.48421 0.28845 1.97505 -1.47216 -0.184238 1.98748 -1.47764 0.131895 1.99164 -14.1569 14.3867 -10.8181 -14.814 33.9479 -5.43619 -0.0 0.0 -0.0 -2.9681 18.2667 -2.37077 -1.66669 -39.2791 61.1051 2.43012 -50.276 1.14045 28.1578 0.119608 -3.55897 -0.876946 17.3846 1.72393 -0.0 0.0 -0.0 11.3062 6.08689 -22.6725 -24.27 18.0259 -59.3781 0.746199 20.2866 -0.133502 -1.04423 0.0379614 -0.127948 7.83665 26.1408 -42.4923 0.0 0.0 0.0 -27.6421 13.5363 2.97792 -17.2181 0.318383 2.61317 40.1446 -6.34442 -4.96559 -39.7414 0.0 0.0 -0.0 0.0 -0.0 21.1759 8.76864 -3.39785 -16.2101 -0.321512 -2.45855 8.33666 14.0884 1.28583 -22.9385 0.0 0.0 0.0 0.0 0.0 
1054.08 677.522 -1401.45 37.1751 76.628 -40.5482 -1.48808 0.523246 1.97282 -1.486 0.396676 2.0021 -1.46985 -0.0852659 2.03923 -1.47558 0.237794 2.02711 -14.3648 14.8772 -10.2679 -15.1361 34.5271 -4.63888 -0.0 0.0 -0.0 -3.15659 18.9844 -2.51497 -3.72518 -39.5308 60.7379 2.08265 -45.8879 0.881706 27.4155 0.138975 -3.46613 -0.0147855 17.8397 7.15645 -0.0 0.0 -0.0 11.4394 6.78837 -22.9825 -23.0848 19.52 -59.15 0.840474 22.604 -0.167977 -0.02808 0.000990207 -0.00344944 7.85769 25.5041 -43.2587 0.0 0.0 0.0 -23.7688 13.5235 1.80065 -26.2322 0.169842 3.98698 39.6145 -2.60736 -4.86691 -37.8774 0.0 0.0 -0.0 0.0 -0.0 19.5342 8.6748 -3.49704 -15.2613 -0.321973 -2.31298 8.97303 13.754 1.37745 -24.0888 0.0 0.0 0.0 0.0 0.0 
1033.79 679.562 -1407.73 40.1566 77.5531 -43.4339 -1.36814 0.575656 1.95516 -1.36613 0.450103 1.98781 -1.34828 -0.0256141 2.03795 -1.35395 0.296497 2.01643 -13.0695 14.0633 -10.2795 -13.5451 33.1147 -5.41169 -0.0 0.0 -0.0 -3.24617 19.8841 -2.46709 -4.84658 -40.0113 61.3195 1.8762 -42.9005 0.73723 25.9724 0.173178 -3.28496 0.131187 18.9871 8.48237 -0.0 0.0 -0.0 11.3817 6.98366 -22.8592 -20.2194 19.5036 -58.9328 0.967224 25.6002 -0.219755 1.08876 -0.0370874 0.134107 7.97407 25.5428 -44.2021 0.0 0.0 0.0 -21.0387 12.9603 0.775293 -31.3163 -0.00859665 4.74657 39.7071 -0.498335 -4.85452 -36.9656 0.0 0.0 -0.0 0.0 -0.0 18.1666 8.72973 -3.28374 -16.7456 -0.320188 -2.5407 13.8926 10.9 2.05268 -23.1454 0.0 0.0 0.0 0.0 0.0 
1015.5 680.053 -1412.87 40.8654 77.6601 -44.4355 -1.32985 0.608933 2.05137 -1.32763 0.477195 2.08594 -1.30783 -0.020617 2.1397 -1.31408 0.317491 2.11613 -12.4195 13.6158 -10.1173 -12.7662 32.2236 -5.62802 -0.0 0.0 -0.0 -3.91275 20.9444 -3.22054 -5.41757 -40.5563 61.8813 1.752 -40.9506 0.654229 25.5254 0.182844 -3.22868 0.395595 20.4242 10.6098 -0.0 0.0 -0.0 10.9284 7.26473 -21.8668 -19.7089 20.3908 -60.2869 1.0884 28.3309 -0.274716 1.14974 -0.0390886 0.141638 8.22884 26.0201 -45.9169 0.0 0.0 0.0 -16.8001 12.4793 -0.243738 -40.4913 -0.498316 6.06691 39.7204 0.391859 -4.84906 -35.974 0.0 0.0 -0.0 0.0 -0.0 16.5634 8.56878 -3.41178 -16.5979 -0.320631 -2.51804 18.7778 9.12446 2.68635 -21.9729 0.0 0.0 0.0 0.0 0.0 
